Coordinates
version=1
nRows=26
nColumns=27
inDegrees=yes

Units are S.I. units (second, meters, Newtons, ...)
If the header above contains a line with 'inDegrees', this indicates whether rotational values are in degrees (yes) or radians (no).

endheader
time	pelvis_rotation	pelvis_tilt	pelvis_list	pelvis_tx	pelvis_ty	pelvis_tz	hip_flexion_r	hip_adduction_r	hip_rotation_r	knee_angle_r	knee_rotation_r	knee_adduction_r	knee_angle_r_beta	ankle_angle_r	subtalar_angle_r	mtp_angle_r	hip_flexion_l	hip_adduction_l	hip_rotation_l	knee_angle_l	knee_rotation_l	knee_adduction_l	knee_angle_l_beta	ankle_angle_l	subtalar_angle_l	mtp_angle_l
      2.29500000	      0.02464124	    -24.42480545	      0.16885253	      0.03219159	      0.83654252	     -1.18607949	     38.82464037	    -24.71100178	    -29.53373730	     20.18994399	      0.00000000	      2.35708100	      0.35238100	     -6.75444582	      0.00000000	      0.00000000	     38.47678911	    -21.39835348	    -12.45693391	     14.70254801	      0.00000000	      1.93146076	      0.25660787	     -9.65050499	      0.00000000	      0.00000000
      2.30000000	      0.05836563	    -24.91335579	      0.34038109	      0.03102056	      0.83585808	     -1.18640533	     39.83313938	    -25.08266770	    -29.28066659	     20.92222236	      0.00000000	      2.50604666	      0.36516167	     -6.52921029	      0.00000000	      0.00000000	     39.36855806	    -21.33928302	    -12.63127526	     15.31263447	      0.00000000	      1.60053927	      0.26725589	     -9.39019677	      0.00000000	      0.00000000
      2.30500000	      0.14128125	    -25.28214632	      0.74446191	      0.02997180	      0.83511161	     -1.18691544	     40.81992372	    -25.69867009	    -28.96856473	     21.76158073	      0.00000000	      2.71753003	      0.37981123	     -6.26448833	      0.00000000	      0.00000000	     40.01367701	    -21.05531186	    -12.89934880	     15.78962985	      0.00000000	      1.30816796	      0.27558103	     -9.20861670	      0.00000000	      0.00000000
      2.31000000	      0.18345569	    -25.71369374	      0.91297753	      0.02883641	      0.83431560	     -1.18721084	     41.78120504	    -26.06583132	    -28.70928639	     22.50553377	      0.00000000	      2.86068914	      0.39279566	     -6.05416821	      0.00000000	      0.00000000	     40.87730578	    -21.02491903	    -13.12680484	     16.45550593	      0.00000000	      0.90568129	      0.28720276	     -8.93059714	      0.00000000	      0.00000000
      2.31500000	      0.12572223	    -26.10556521	      1.34935686	      0.02764200	      0.83338351	     -1.18771231	     42.96481225	    -26.67004322	    -28.11208684	     23.43976251	      0.00000000	      3.03502855	      0.40910103	     -5.76434320	      0.00000000	      0.00000000	     41.51589036	    -20.79421930	    -13.65565620	     17.00740272	      0.00000000	      0.51292924	      0.29683517	     -8.69366124	      0.00000000	      0.00000000
      2.32000000	      0.21164374	    -26.44968589	      1.70032204	      0.02658528	      0.83244174	     -1.18811813	     43.94816861	    -27.23102667	    -27.80496681	     24.30030287	      0.00000000	      3.26890719	      0.42412029	     -5.48663392	      0.00000000	      0.00000000	     42.21276244	    -20.60904419	    -13.97496067	     17.60393508	      0.00000000	      0.11834381	      0.30724663	     -8.45008858	      0.00000000	      0.00000000
      2.32500000	      0.14942808	    -26.79071839	      2.01483587	      0.02549087	      0.83139966	     -1.18846387	     45.02280743	    -27.69751743	    -27.26521141	     25.17284610	      0.00000000	      3.43262960	      0.43934905	     -5.22718758	      0.00000000	      0.00000000	     42.88126946	    -20.52926921	    -14.52123801	     18.26443017	      0.00000000	     -0.38176936	      0.31877444	     -8.15826610	      0.00000000	      0.00000000
      2.33000000	      0.28752845	    -27.12600040	      2.41314679	      0.02441113	      0.83027594	     -1.18889537	     46.04775751	    -28.32699426	    -26.96768170	     26.10569769	      0.00000000	      3.71172608	      0.45563038	     -4.93405776	      0.00000000	      0.00000000	     43.60974715	    -20.31977635	    -14.84590097	     18.91554260	      0.00000000	     -0.81578841	      0.33013850	     -7.87938861	      0.00000000	      0.00000000
      2.33500000	      0.51340278	    -27.35381270	      2.35821980	      0.02368581	      0.82922736	     -1.18889522	     46.53197654	    -28.56344062	    -27.22114456	     26.73445704	      0.00000000	      3.98511052	      0.46660430	     -4.70821238	      0.00000000	      0.00000000	     44.48493007	    -20.50059400	    -14.88519069	     19.76724732	      0.00000000	     -1.42388033	      0.34500355	     -7.51203753	      0.00000000	      0.00000000
      2.34000000	      0.67231888	    -27.65092873	      2.38238391	      0.02274016	      0.82803927	     -1.18897831	     47.23923094	    -28.86701479	    -27.28085556	     27.47454737	      0.00000000	      4.26865376	      0.47952131	     -4.47879930	      0.00000000	      0.00000000	     45.39637108	    -20.63644170	    -14.97054477	     20.62088603	      0.00000000	     -1.93255739	      0.35990236	     -7.15869773	      0.00000000	      0.00000000
      2.34500000	      1.01376454	    -27.88166542	      2.48349598	      0.02193719	      0.82679498	     -1.18911835	     47.80373159	    -29.32722282	    -27.58574818	     28.24808313	      0.00000000	      4.64107772	      0.49302206	     -4.20359892	      0.00000000	      0.00000000	     46.27398621	    -20.63640407	    -14.87442290	     21.43060730	      0.00000000	     -2.41120447	      0.37403466	     -6.83017023	      0.00000000	      0.00000000
      2.35000000	      0.64267782	    -28.06889239	      2.90323792	      0.02090078	      0.82533487	     -1.18940399	     49.05806792	    -29.75009158	    -26.44999025	     29.24060822	      0.00000000	      4.75604319	      0.51034489	     -3.89627447	      0.00000000	      0.00000000	     46.62101747	    -20.67452564	    -16.02499084	     22.15031032	      0.00000000	     -3.12000136	      0.38659585	     -6.49183885	      0.00000000	      0.00000000
      2.35500000	      0.58689008	    -30.56105613	      3.04877762	      0.01543069	      0.82282144	     -1.18942061	     53.16675252	    -29.88262284	    -24.41342255	     30.79938317	      0.00000000	      3.79914990	      0.53755064	     -3.69620266	      0.00000000	      0.00000000	     50.42522925	    -20.92437475	    -15.25742588	     23.90120185	      0.00000000	     -2.72290338	      0.41715467	     -6.04980073	      0.00000000	      0.00000000
      2.36000000	      0.83077716	    -28.35036285	      2.99538950	      0.01937543	      0.82250362	     -1.18943338	     50.26293385	    -30.36571166	    -26.39053734	     30.76779666	      0.00000000	      5.34666259	      0.53699936	     -3.37859700	      0.00000000	      0.00000000	     48.01998766	    -21.02864963	    -16.50518691	     23.85638681	      0.00000000	     -4.32655604	      0.41637250	     -5.75461444	      0.00000000	      0.00000000
      2.36500000	      0.34307904	    -28.41389352	      3.66153103	      0.01837866	      0.82079763	     -1.18981148	     51.68667846	    -30.90510412	    -24.83724660	     31.88241893	      0.00000000	      5.47866420	      0.55645318	     -3.04540503	      0.00000000	      0.00000000	     48.03996789	    -20.96707959	    -18.01378391	     24.49511829	      0.00000000	     -5.04000809	      0.42752046	     -5.42135867	      0.00000000	      0.00000000
      2.37000000	      1.28307531	    -28.69114298	      3.06321928	      0.01771381	      0.81941199	     -1.18939432	     51.38589398	    -31.09589864	    -26.65986661	     32.32848360	      0.00000000	      5.98484730	      0.56423848	     -2.82591606	      0.00000000	      0.00000000	     49.66631213	    -21.30554632	    -16.48617209	     25.61761612	      0.00000000	     -5.34500547	      0.44711175	     -5.06328799	      0.00000000	      0.00000000
      2.37500000	      1.06789445	    -29.92195431	      3.50484835	      0.01406266	      0.81706941	     -1.18952287	     54.18422284	    -31.42176118	    -24.68442901	     33.66744289	      0.00000000	      5.37796202	      0.58760773	     -2.62007169	      0.00000000	      0.00000000	     51.53794943	    -21.31730485	    -16.49601476	     26.69922391	      0.00000000	     -5.10548330	      0.46598936	     -4.84841247	      0.00000000	      0.00000000
      2.38000000	      1.04211081	    -28.82686744	      3.55359888	      0.01602455	      0.81609822	     -1.18952395	     53.08276893	    -31.82378681	    -25.47759528	     34.06729933	      0.00000000	      6.41672349	      0.59458654	     -2.29278056	      0.00000000	      0.00000000	     50.46117310	    -21.56982603	    -17.75605278	     27.11262540	      0.00000000	     -6.48854865	      0.47320458	     -4.44006456	      0.00000000	      0.00000000
      2.38500000	      1.00300617	    -30.21725840	      3.96620086	      0.01208488	      0.81359086	     -1.18957495	     55.99288371	    -32.13642724	    -23.62777919	     35.40626197	      0.00000000	      5.75896687	      0.61795585	     -2.07414353	      0.00000000	      0.00000000	     52.64017855	    -21.55131011	    -17.38535402	     28.24830664	      0.00000000	     -6.03693315	      0.49302596	     -4.26278024	      0.00000000	      0.00000000
      2.39000000	      1.14079292	    -29.05205245	      4.02310221	      0.01413005	      0.81270785	     -1.18955275	     54.67441944	    -32.64922546	    -24.68573423	     35.75125285	      0.00000000	      6.87909697	      0.62397707	     -1.75300623	      0.00000000	      0.00000000	     51.50807261	    -21.69652057	    -18.37095918	     28.54774256	      0.00000000	     -7.31584640	      0.49825210	     -3.92370654	      0.00000000	      0.00000000
      2.39500000	      1.43196836	    -29.16467622	      4.02650617	      0.01324385	      0.81105329	     -1.18946186	     55.10319157	    -33.01080478	    -24.88860710	     36.45773246	      0.00000000	      7.12527837	      0.63630747	     -1.52286200	      0.00000000	      0.00000000	     52.27303467	    -21.81494384	    -18.13956316	     29.33547097	      0.00000000	     -7.63779205	      0.51200056	     -3.65750129	      0.00000000	      0.00000000
      2.40000000	      1.90129588	    -29.62286579	      4.19928524	      0.01186010	      0.80925394	     -1.18945488	     55.99973651	    -33.56111389	    -24.99999363	     37.27846128	      0.00000000	      7.37303732	      0.65063189	     -1.27197897	      0.00000000	      0.00000000	     53.48851913	    -21.74631120	    -17.72789032	     30.18093349	      0.00000000	     -7.82363519	      0.52675666	     -3.44953821	      0.00000000	      0.00000000
      2.40500000	      1.87484428	    -31.03289339	      4.44363377	      0.00792401	      0.80676796	     -1.18932486	     58.78345679	    -33.66977777	    -23.29506672	     38.43774594	      0.00000000	      6.63105248	      0.67086522	     -1.16762978	      0.00000000	      0.00000000	     55.71166362	    -21.83266952	    -17.17832210	     31.22490737	      0.00000000	     -7.24213812	      0.54497744	     -3.32416473	      0.00000000	      0.00000000
      2.41000000	      2.54009297	    -29.90914156	      3.79716106	      0.01017622	      0.80629590	     -1.18894498	     56.42091755	    -33.98036003	    -25.98231181	     38.34807199	      0.00000000	      7.87373540	      0.66930012	     -0.91890307	      0.00000000	      0.00000000	     55.20374158	    -22.16963121	    -16.79347352	     31.62317784	      0.00000000	     -8.27084965	      0.55192857	     -3.03568788	      0.00000000	      0.00000000
      2.41500000	      2.45997956	    -30.03546952	      4.11424252	      0.00900701	      0.80468973	     -1.18892905	     57.36573424	    -34.30884885	    -25.19975215	     39.09142039	      0.00000000	      7.93613006	      0.68227400	     -0.73113263	      0.00000000	      0.00000000	     55.55276859	    -22.21240604	    -17.26220264	     32.15226678	      0.00000000	     -8.51687557	      0.56116292	     -2.87394344	      0.00000000	      0.00000000
      2.42000000	      2.83266047	    -30.27628463	      4.07422629	      0.00798603	      0.80324240	     -1.18875994	     57.77127730	    -34.63836739	    -25.52836502	     39.64391135	      0.00000000	      8.12420383	      0.69191678	     -0.56801393	      0.00000000	      0.00000000	     56.44124310	    -22.26297580	    -16.83827534	     32.77857610	      0.00000000	     -8.64971573	      0.57209408	     -2.74065411	      0.00000000	      0.00000000
